<?xml version="1.0" encoding="UTF-8" standalone="no"?>
<!-- Created with Inkscape (http://www.inkscape.org/) -->

<svg
   width="24"
   height="24"
   viewBox="0 0 6.3499999 6.35"
   version="1.1"
   id="svg5"
   xmlns="http://www.w3.org/2000/svg"
   xmlns:svg="http://www.w3.org/2000/svg">
  <defs
     id="defs2" />
  <g
     style="fill:#000000;fill-opacity:1"
     id="g1"
     transform="matrix(0.32127976,0,0,0.33071108,0.60476189,0.52945601)">
    <path
       d="m 8,16 a 2,2 0 0 0 2,-2 H 6 a 2,2 0 0 0 2,2 M 8.995,1.099 a 1,1 0 1 0 -1.99,0 A 5,5 0 0 0 3,6 C 3,7.098 2.5,12 1,13 H 15 C 13.5,12 13,7.098 13,6 13,3.58 11.28,1.56 8.995,1.099"
       id="path1"
       style="fill:#000000;fill-opacity:1" />
  </g>
</svg>
