<?xml version="1.0" encoding="UTF-8" standalone="no"?>
<!-- Created with Inkscape (http://www.inkscape.org/) -->

<svg
   width="24"
   height="24"
   viewBox="0 0 6.3499999 6.35"
   version="1.1"
   id="svg5"
   inkscape:export-filename="Meeting.svg"
   inkscape:export-xdpi="96"
   inkscape:export-ydpi="96"
   xmlns:inkscape="http://www.inkscape.org/namespaces/inkscape"
   xmlns:sodipodi="http://sodipodi.sourceforge.net/DTD/sodipodi-0.dtd"
   xmlns="http://www.w3.org/2000/svg"
   xmlns:svg="http://www.w3.org/2000/svg">
  <sodipodi:namedview
     id="namedview7"
     pagecolor="#ffffff"
     bordercolor="#666666"
     borderopacity="1.0"
     inkscape:showpageshadow="2"
     inkscape:pageopacity="0.0"
     inkscape:pagecheckerboard="0"
     inkscape:deskcolor="#d1d1d1"
     inkscape:document-units="mm"
     showgrid="true"
     showguides="true"
     inkscape:zoom="21.433398"
     inkscape:cx="4.8988966"
     inkscape:cy="7.8615627"
     inkscape:window-width="1920"
     inkscape:window-height="1008"
     inkscape:window-x="1920"
     inkscape:window-y="0"
     inkscape:window-maximized="1"
     inkscape:current-layer="layer1">
    <inkscape:grid
       type="xygrid"
       id="grid132" />
    <sodipodi:guide
       position="1.5875,0.52916667"
       orientation="0,-1"
       id="guide134"
       inkscape:locked="false" />
    <sodipodi:guide
       position="2.1166666,5.8208333"
       orientation="0,-1"
       id="guide186"
       inkscape:locked="false" />
    <sodipodi:guide
       position="0.52916666,1.8520833"
       orientation="1,0"
       id="guide188"
       inkscape:locked="false" />
    <sodipodi:guide
       position="5.8208332,1.0583333"
       orientation="1,0"
       id="guide190"
       inkscape:locked="false" />
  </sodipodi:namedview>
  <defs
     id="defs2" />
  <g
     inkscape:label="Ebene 1"
     inkscape:groupmode="layer"
     id="layer1">
    <g
       id="g2304">
      <g
         id="rect1588">
        <path
           id="rect2404"
           style="fill:#000000;fill-opacity:1;stroke:none;stroke-width:0.591627;stroke-linecap:round;stroke-linejoin:round;stroke-dasharray:none;stroke-opacity:1;paint-order:markers fill stroke"
           d="m 3.0359904,0.72762949 c -0.070092,0.00353 -0.1255737,0.0612926 -0.1255737,0.13229163 V 1.6536711 h -1.190625 c -0.07329,0 -0.1322917,0.059002 -0.1322917,0.1322917 V 2.8442961 2.9765878 H 1.190625 c -0.073289,0 -0.1322917,0.059002 -0.1322917,0.1322917 V 4.1672128 4.2995045 H 0.66145834 c -0.0732894,0 -0.13229166,0.059002 -0.13229166,0.1322916 v 1.0583334 c 0,0.073289 0.0590022,0.1322916 0.13229166,0.1322916 H 5.6885417 c 0.073289,0 0.1322916,-0.059002 0.1322916,-0.1322916 V 4.4317961 c 0,-0.073289 -0.059002,-0.1322916 -0.1322916,-0.1322916 h -0.396875 c 0,0 0,-0.059002 0,-0.1322917 V 3.1088795 c 0,-0.07329 -0.059002,-0.1322917 -0.1322917,-0.1322917 H 4.7625 c 0,0 0,-0.059002 0,-0.1322917 V 1.7859628 c 0,-0.073289 -0.059002,-0.1322917 -0.1322917,-0.1322917 H 3.4395833 V 0.85992112 c 0,-0.0732894 -0.059002,-0.13229163 -0.1322916,-0.13229163 H 3.0427083 c -0.00229,0 -0.00446,-1.1388e-4 -0.00672,0 z M 1.8520833,1.9182545 h 1.1839071 0.2780192 1.1839071 c 0,0 -1.727e-4,0.2645842 -0.2206584,0.5291666 0,0 -0.2200501,0.2513392 -1.100708,0 -0.4110719,-0.1173193 -0.8833231,0.070895 -1.1038086,0 C 1.7730375,2.2535218 1.8520833,1.9182545 1.8520833,1.9182545 Z M 1.3363525,3.2411711 h 3.6907308 c 0,0 1.04e-4,0.264584 -0.3074747,0.5291667 0,0 -0.3073003,0.2513392 -1.5358236,0 -0.5734478,-0.1173197 -1.2323791,0.070895 -1.5399577,0 C 1.225739,3.5764383 1.3363525,3.2411711 1.3363525,3.2411711 Z M 0.79271648,4.5640878 H 5.55625 c 0,0 7.69e-5,0.2645838 -0.396875,0.5291667 0,0 -0.3968128,0.2513392 -1.9823079,0 -0.7400746,-0.1173197 -1.5905241,0.070895 -1.9874756,0 C 0.65001923,4.899355 0.79271648,4.5640878 0.79271648,4.5640878 Z"
           sodipodi:nodetypes="cscssscssscsssssssscssscssscsssscccccscccccscccccsccc" />
      </g>
    </g>
  </g>
</svg>
