<?xml version="1.0" encoding="UTF-8" standalone="no"?>
<!-- Created with Inkscape (http://www.inkscape.org/) -->

<svg
   width="24"
   height="24"
   viewBox="0 0 6.3499999 6.35"
   version="1.1"
   id="svg5"
   xmlns="http://www.w3.org/2000/svg"
   xmlns:svg="http://www.w3.org/2000/svg">
  <defs
     id="defs2" />
  <path
     id="path827-7-9-7"
     style="display:inline;opacity:1;fill:#000000;fill-opacity:1;stroke:none;stroke-width:0.356942;stroke-linecap:round;stroke-linejoin:round;stroke-miterlimit:4;stroke-dasharray:none;stroke-dashoffset:74.2677;stroke-opacity:1;paint-order:fill markers stroke"
     d="m 4.1072428,0.52916641 c -0.5263692,1.37e-4 -0.9529844,0.45035903 -0.9529134,1.00562379 0.00246,0.4491365 0.2869917,0.842085 0.6971151,0.9627317 -0.2346655,0.034002 -0.4294786,0.1120604 -0.5958293,0.2144571 0.055489,0.1289125 0.084545,0.2687344 0.085266,0.4103108 -0.00141,0.4426824 -0.27711,0.832315 -0.6790283,0.9596314 0.1903681,0.025079 0.3556453,0.078262 0.4991943,0.1514122 h 2.6597859 c 0,0 -0.1064221,-1.5633335 -1.4391884,-1.7389123 C 4.7835628,2.3671057 5.059264,1.9774721 5.060673,1.5347902 5.0607579,0.97931263 4.633814,0.5290116 4.1072428,0.52916641 Z M 2.2551595,2.1166665 A 0.95316423,1.0054881 0 0 0 1.3022461,3.1222898 0.95316423,1.0054881 0 0 0 1.9993612,4.085022 C 0.67097922,4.2775009 0.52916667,5.8208331 0.52916667,5.8208331 H 3.96875 c 0,0 -0.1064189,-1.5633331 -1.4391887,-1.7389119 A 0.95316423,1.0054881 0 0 0 3.2085897,3.1222898 0.95316423,1.0054881 0 0 0 2.2551595,2.1166665 Z" />
</svg>
