<?xml version="1.0" encoding="UTF-8" standalone="no"?>
<!-- Created with Inkscape (http://www.inkscape.org/) -->

<svg
   width="24"
   height="24"
   viewBox="0 0 6.3499999 6.35"
   version="1.1"
   id="svg5"
   inkscape:export-filename="Meeting.svg"
   inkscape:export-xdpi="96"
   inkscape:export-ydpi="96"
   xmlns:inkscape="http://www.inkscape.org/namespaces/inkscape"
   xmlns:sodipodi="http://sodipodi.sourceforge.net/DTD/sodipodi-0.dtd"
   xmlns="http://www.w3.org/2000/svg"
   xmlns:svg="http://www.w3.org/2000/svg">
  <sodipodi:namedview
     id="namedview7"
     pagecolor="#ffffff"
     bordercolor="#666666"
     borderopacity="1.0"
     inkscape:showpageshadow="2"
     inkscape:pageopacity="0.0"
     inkscape:pagecheckerboard="0"
     inkscape:deskcolor="#d1d1d1"
     inkscape:document-units="mm"
     showgrid="true"
     showguides="true"
     inkscape:zoom="21.433398"
     inkscape:cx="4.8988966"
     inkscape:cy="7.8615627"
     inkscape:window-width="1920"
     inkscape:window-height="1008"
     inkscape:window-x="1920"
     inkscape:window-y="0"
     inkscape:window-maximized="1"
     inkscape:current-layer="layer1">
    <inkscape:grid
       type="xygrid"
       id="grid132" />
    <sodipodi:guide
       position="1.5875,0.52916667"
       orientation="0,-1"
       id="guide134"
       inkscape:locked="false" />
    <sodipodi:guide
       position="2.1166666,5.8208333"
       orientation="0,-1"
       id="guide186"
       inkscape:locked="false" />
    <sodipodi:guide
       position="0.52916666,1.8520833"
       orientation="1,0"
       id="guide188"
       inkscape:locked="false" />
    <sodipodi:guide
       position="5.8208332,1.0583333"
       orientation="1,0"
       id="guide190"
       inkscape:locked="false" />
  </sodipodi:namedview>
  <defs
     id="defs2" />
  <g
     inkscape:label="Ebene 1"
     inkscape:groupmode="layer"
     id="layer1">
    <g
       id="g2304">
      <g
         id="rect1588">
        <path
           style="color:#000000;fill:#ffffff;stroke-width:0.54195;stroke-linecap:round;stroke-linejoin:round;-inkscape-stroke:none;paint-order:markers fill stroke"
           d="m 1.3079991,1.5725825 h 3.7340018 c 0.2931583,0 0.5291666,0.2360083 0.5291666,0.5291666 v 2.9253346 c 0,0.2931583 -0.2360083,0.5291666 -0.5291666,0.5291666 H 1.3079991 c -0.2931583,0 -0.5291666,-0.2360083 -0.5291666,-0.5291666 V 2.1017491 c 0,-0.2931583 0.2360083,-0.5291666 0.5291666,-0.5291666 z"
           id="path2308" />
        <path
           id="path2310"
           style="color:#000000;fill:#000000;stroke:none;stroke-linecap:round;stroke-linejoin:round;stroke-opacity:1;-inkscape-stroke:none;paint-order:markers fill stroke"
           d="M 1.7130737,0.52916667 C 1.642982,0.53269674 1.5875,0.59045919 1.5875,0.66145833 V 1.3006958 H 1.3084473 c -0.43859006,0 -0.80046797,0.3623946 -0.80046797,0.8009847 v 2.9259196 c 0,0.4385902 0.36187791,0.8004679 0.80046797,0.8004679 H 5.043103 c 0.4385902,0 0.7989177,-0.3618777 0.7989177,-0.8004679 V 2.1016805 c 0,-0.4385901 -0.3603275,-0.8009846 -0.7989177,-0.8009847 H 4.7625 V 0.66145833 c 0,-0.0732894 -0.059002,-0.13229166 -0.1322917,-0.13229166 H 4.365625 c -0.073289,0 -0.1322917,0.0590022 -0.1322917,0.13229166 V 1.3006958 H 2.1166667 V 0.66145833 c 0,-0.0732894 -0.059002,-0.13229166 -0.1322917,-0.13229166 H 1.7197917 c -0.00229,0 -0.00446,-1.1388e-4 -0.00672,0 z M 1.3084473,1.8438151 H 5.043103 c 0.147725,0 0.2578654,0.1101405 0.2578654,0.2578654 v 2.9259196 c 0,0.1477248 -0.1101404,0.2573486 -0.2578654,0.2573486 H 1.3084473 c -0.1477249,0 -0.2578654,-0.1096238 -0.2578654,-0.2573486 V 2.1016805 c 0,-0.1477249 0.1101405,-0.2578654 0.2578654,-0.2578654 z m 0.1400431,0.2728516 c -0.070092,0.00353 -0.1255737,0.061292 -0.1255737,0.1322916 V 2.778125 c 0,0.07329 0.059002,0.1322917 0.1322916,0.1322917 h 0.79375 c 0.07329,0 0.1322917,-0.059002 0.1322917,-0.1322917 V 2.2489583 c 0,-0.07329 -0.059002,-0.1322916 -0.1322917,-0.1322916 h -0.79375 c -0.00229,0 -0.00446,-1.139e-4 -0.00672,0 z m 1.3229167,0 c -0.070092,0.00353 -0.1255738,0.061292 -0.1255738,0.1322916 V 2.778125 c 0,0.07329 0.059002,0.1322917 0.1322917,0.1322917 h 0.79375 c 0.07329,0 0.1322917,-0.059002 0.1322917,-0.1322917 V 2.2489583 c 0,-0.07329 -0.059002,-0.1322916 -0.1322917,-0.1322916 h -0.79375 c -0.00229,0 -0.00446,-1.139e-4 -0.00672,0 z m 1.3229166,0 C 4.0242319,2.1201968 3.96875,2.1779591 3.96875,2.2489583 V 2.778125 c 0,0.07329 0.059002,0.1322917 0.1322917,0.1322917 h 0.79375 c 0.07329,0 0.1322916,-0.059002 0.1322916,-0.1322917 V 2.2489583 c 0,-0.07329 -0.059002,-0.1322916 -0.1322916,-0.1322916 h -0.79375 c -0.00229,0 -0.00446,-1.139e-4 -0.00672,0 z M 1.4484904,3.175 C 1.3783984,3.17853 1.3229167,3.236292 1.3229167,3.3072917 v 0.5291666 c 0,0.07329 0.059002,0.1322917 0.1322916,0.1322917 h 0.79375 c 0.07329,0 0.1322917,-0.059002 0.1322917,-0.1322917 V 3.3072917 C 2.38125,3.2340022 2.3222478,3.175 2.2489583,3.175 h -0.79375 c -0.00229,0 -0.00446,-1.139e-4 -0.00672,0 z m 1.3229167,0 C 2.7013151,3.17853 2.6458333,3.236292 2.6458333,3.3072917 v 0.5291666 c 0,0.07329 0.059002,0.1322917 0.1322917,0.1322917 h 0.79375 c 0.07329,0 0.1322917,-0.059002 0.1322917,-0.1322917 V 3.3072917 C 3.7041667,3.2340022 3.6451645,3.175 3.571875,3.175 h -0.79375 c -0.00229,0 -0.00446,-1.139e-4 -0.00672,0 z m 1.3229166,0 C 4.0242319,3.1785301 3.96875,3.2362925 3.96875,3.3072917 v 0.5291666 c 0,0.07329 0.059002,0.1322917 0.1322917,0.1322917 h 0.79375 c 0.07329,0 0.1322916,-0.059002 0.1322916,-0.1322917 V 3.3072917 C 5.0270833,3.2340022 4.9680812,3.175 4.8947917,3.175 h -0.79375 c -0.00229,0 -0.00446,-1.139e-4 -0.00672,0 z M 1.4484904,4.2333333 c -0.070092,0.00353 -0.1255737,0.061293 -0.1255737,0.1322917 v 0.5291667 c 0,0.07329 0.059002,0.1322916 0.1322916,0.1322916 h 0.79375 c 0.07329,0 0.1322917,-0.059002 0.1322917,-0.1322916 V 4.365625 c 0,-0.073289 -0.059002,-0.1322917 -0.1322917,-0.1322917 h -0.79375 c -0.00229,0 -0.00446,-1.138e-4 -0.00672,0 z m 1.3229167,0 c -0.070092,0.00353 -0.1255738,0.061293 -0.1255738,0.1322917 v 0.5291667 c 0,0.07329 0.059002,0.1322916 0.1322917,0.1322916 h 0.79375 c 0.07329,0 0.1322917,-0.059002 0.1322917,-0.1322916 V 4.365625 c 0,-0.073289 -0.059002,-0.1322917 -0.1322917,-0.1322917 h -0.79375 c -0.00229,0 -0.00446,-1.138e-4 -0.00672,0 z m 1.3229166,0 C 4.0242319,4.2368634 3.96875,4.2946258 3.96875,4.365625 v 0.5291667 c 0,0.07329 0.059002,0.1322916 0.1322917,0.1322916 h 0.79375 c 0.07329,0 0.1322916,-0.059002 0.1322916,-0.1322916 V 4.365625 c 0,-0.073289 -0.059002,-0.1322917 -0.1322916,-0.1322917 h -0.79375 c -0.00229,0 -0.00446,-1.138e-4 -0.00672,0 z" />
      </g>
    </g>
  </g>
</svg>
