<?xml version="1.0" encoding="UTF-8" standalone="no"?>
<!-- Created with Inkscape (http://www.inkscape.org/) -->

<svg
   width="24"
   height="24"
   viewBox="0 0 6.3499999 6.35"
   version="1.1"
   id="svg5"
   xmlns="http://www.w3.org/2000/svg"
   xmlns:svg="http://www.w3.org/2000/svg">
  <defs
     id="defs2" />
  <g
     id="layer1">
    <g
       id="g2304">
      <g
         id="rect1588">
        <path
           id="path399"
           style="fill:#000000;fill-opacity:1;stroke:none;stroke-width:0.692721;stroke-linecap:round;stroke-linejoin:round;stroke-dasharray:none;stroke-opacity:1;paint-order:markers fill stroke"
           d="M 2.3926188,0.52554932 C 1.6134814,0.53373037 1.0583333,1.5807821 1.0583333,1.5807821 c 0.040737,0.014796 0.5291667,0 0.5291667,0 0.068511,-0.017262 0.2645833,-0.3524333 0.2645833,-0.3524333 0,0 0.1757035,0.3327069 0.2645834,0.3524333 H 2.4923543 C 2.0441833,1.7965821 1.7335994,2.279093 2.38125,3.3527669 L 3.1088542,2.0169312 c 0.1872797,0.3966662 0.40273,1.1274104 0.2196248,3.1724161 -0.055658,-0.00654 -0.1111287,-0.014059 -0.1658813,-0.023771 -1.7549854,-0.3112946 -2.19418136,0 -2.19418136,0 -0.43938626,0.3276974 -0.43924967,0.655257 -0.43924967,0.655257 H 5.8017131 c 0,0 0.1580032,-0.4151041 -0.4392497,-0.6552571 C 5.1109314,5.11531 4.6947147,5.1702911 4.2312663,5.1991659 4.1469035,3.3425078 3.9300992,2.3743798 3.7248372,1.8520833 h 0.7730795 c 0.08888,-0.019752 0.2645833,-0.35295 0.2645833,-0.35295 0,0 0.1960719,0.3356672 0.2645833,0.35295 0,0 0.4884302,0.014814 0.5291667,0 0,0 -0.9618363,-1.81551971 -2.1295858,-0.6872965 C 3.0599434,0.68928167 2.707994,0.52223783 2.3926188,0.52554932 Z" />
      </g>
    </g>
  </g>
</svg>
